<?xml version="1.0" encoding="UTF-8" standalone="no"?>
<svg
   xmlns:dc="http://purl.org/dc/elements/1.1/"
   xmlns:cc="http://creativecommons.org/ns#"
   xmlns:rdf="http://www.w3.org/1999/02/22-rdf-syntax-ns#"
   xmlns:svg="http://www.w3.org/2000/svg"
   xmlns="http://www.w3.org/2000/svg"
   xmlns:sodipodi="http://sodipodi.sourceforge.net/DTD/sodipodi-0.dtd"
   xmlns:inkscape="http://www.inkscape.org/namespaces/inkscape"
   inkscape:version="1.0 (4035a4fb49, 2020-05-01)"
   sodipodi:docname="Radarpistole_filled.svg"
   id="svg9"
   version="1.1"
   viewBox="0 0 437.50001 326.32194"
   height="104.42302"
   width="140">
  <metadata
     id="metadata15">
    <rdf:RDF>
      <cc:Work
         rdf:about="">
        <dc:format>image/svg+xml</dc:format>
        <dc:type
           rdf:resource="http://purl.org/dc/dcmitype/StillImage" />
        <dc:title></dc:title>
      </cc:Work>
    </rdf:RDF>
  </metadata>
  <defs
     id="defs13" />
  <sodipodi:namedview
     inkscape:current-layer="svg9"
     inkscape:window-maximized="1"
     inkscape:window-y="-11"
     inkscape:window-x="-11"
     inkscape:cy="91.340843"
     inkscape:cx="81.076732"
     inkscape:zoom="7.5061276"
     fit-margin-bottom="0"
     fit-margin-right="0"
     fit-margin-left="0"
     fit-margin-top="0"
     units="px"
     showgrid="false"
     id="namedview11"
     inkscape:window-height="2066"
     inkscape:window-width="3840"
     inkscape:pageshadow="2"
     inkscape:pageopacity="0"
     guidetolerance="10"
     gridtolerance="10"
     objecttolerance="10"
     borderopacity="1"
     bordercolor="#666666"
     pagecolor="#ffffff" />
  <g
     transform="matrix(0.97578946,0,0,0.97578946,-79.488773,-135.79904)"
     id="g856">
    <path
       id="Welle 3"
       fill="none"
       stroke="#000000"
       stroke-width="1"
       d="m 488,139.78 c 6.93,-0.94 9.54,4.07 13,9.22 7.77,11.57 12.84,21.06 18,34 15.14,37.99 12.94,81.47 -2.2,119 -4.01,9.93 -8.22,17.13 -14.13,26 -2.11,3.16 -4.91,7.98 -8.68,9.22 -4.83,1.58 -12.22,-3.58 -8.71,-11.22 2.8,-6.13 10.78,-13.61 19.27,-35 12.84,-32.35 12.36,-67.44 0.76,-100 -2.81,-7.87 -8.13,-19.03 -12.65,-26 -2.13,-3.28 -9.41,-13.14 -10.13,-16 -1.19,-4.72 1.7,-7.25 5.47,-9.22 z"
       style="fill:#000000;fill-opacity:1" />
    <path
       id="Welle 2"
       fill="none"
       stroke="#000000"
       stroke-width="1"
       d="m 450.02,165.81 c 5.22,-0.25 7.19,2.28 10.31,6.19 4.13,5.17 10.08,14.92 12.53,21 12.78,29.83 14.22,64.33 0,94 -2.85,5.66 -10.03,19.08 -14.95,22.4 -5.44,3.67 -12.71,-1.06 -11.44,-7.4 0.6,-3.01 4.69,-8.22 6.53,-11 4.07,-6.15 5.98,-10.13 8.58,-17 11.09,-29.39 7.89,-59.39 -8.81,-86 -4.35,-6.93 -15.26,-16.8 -2.75,-22.19 z"
       style="fill:#000000;fill-opacity:1" />
    <path
       id="Welle 1"
       fill="none"
       stroke="#000000"
       stroke-width="1"
       d="m 413.02,189.91 c 7.75,0.86 13.78,10.66 17.2,17.09 10.26,19.28 10.79,38.76 3.1,59 -2.26,5.93 -10.59,21.04 -17.36,21.72 -4.83,0.48 -8.58,-3.93 -6.61,-8.72 1.64,-3.96 7.18,-7.58 12.2,-20 5.81,-14.38 4.45,-31.39 -2.87,-45 -3.24,-6.02 -6.51,-8.33 -9.53,-13 -3.31,-5.11 -2.03,-9.38 3.87,-11.09 z"
       style="fill:#000000;fill-opacity:1" />
    <path
       id="Körper oben"
       fill="none"
       stroke="#000000"
       stroke-width="1"
       d="m 83,234 c 0,0 0,-18 0,-18 0,-14.01 0.27,-26.63 17,-30.76 4.67,-1.16 7.27,-1.23 12,-1.24 0,0 228,0 228,0 6.3,0.01 13.51,0.58 19,3.99 3.98,2.48 5.56,5.25 8.28,7.09 3.09,2.1 7.84,2.45 11.28,8.92 2.52,4.75 3.43,18.34 3.44,24 0,0 -0.72,32 -0.72,32 -0.67,5.46 -0.61,10.14 -4.13,14.9 -3.49,4.72 -6.82,3.91 -10.73,7.4 -7.47,6.66 -8.39,9.56 -19.42,9.7 -2.07,0.02 -6.93,0.19 -8.68,-0.57 -3.16,-1.38 -11.91,-14.87 -14.46,-18.43 -12,-16.74 -22.51,-38.72 -45.86,-39 0,0 -195,0 -195,0 z"
       style="fill:#000000;fill-opacity:1" />
    <path
       id="Körper unten"
       fill="none"
       stroke="#000000"
       stroke-width="1"
       d="m 321,293 c 0,0 -96,0 -96,0 0,0 -64,0 -64,0 0,0 -50,0 -50,0 -6.8,-0.01 -13.27,-0.51 -19,-4.64 -11.11,-8 -10.02,-20.31 -10,-32.36 0,-1.99 -0.23,-5.81 1.02,-7.4 1.57,-1.98 5.68,-1.6 7.98,-1.6 0,0 185,0 185,0 4.3,0.01 9.11,-0.02 12.99,2.14 5.67,3.16 16.12,19.83 20.44,25.86 4.02,5.62 9.39,11.42 11.57,18 z"
       style="fill:#000000;fill-opacity:1" />
    <path
       id="Abzug"
       fill="none"
       stroke="#000000"
       stroke-width="1"
       d="m 183,351 c 0,0 12.35,-38 12.35,-38 1.8,-5.37 2.44,-11.9 9.62,-10.85 3.87,0.57 6.45,4.11 8.96,6.85 0,0 12.14,14 12.14,14 3.16,3.48 7.69,8.18 8.5,13 1.22,7.32 -5.7,10.75 -11.57,12.36 -13.31,3.65 -26.34,2.64 -40,2.64 z"
       style="fill:#000000;fill-opacity:1" />
    <path
       id="Griff"
       fill="none"
       stroke="#000000"
       stroke-width="1"
       d="m 126,303 c 0,0 61,0 61,0 -4.17,15.49 -16.98,39.34 -17,54 0,0 0,19 0,19 0,0 -0.96,12 -0.96,12 0,0 0,15 0,15 -0.03,4.06 -0.04,9.36 1.94,13 2.45,4.5 9.77,9.51 13.61,18 2.19,4.87 1.42,16.27 1.41,22 -0.03,14.23 -7.17,16.98 -20,17 0,0 -43,0 -43,0 -5.74,0 -17.01,0.58 -22,-1.26 -7.76,-2.87 -8.99,-8.42 -9,-15.74 -0.01,-5.61 -0.76,-16.18 1.41,-21 6.45,-14.26 15.56,-12.34 15.59,-29 0,0 0,-49 0,-49 0.03,-15.81 13.2,-37.8 17,-54 z"
       style="fill:#000000;fill-opacity:1" />
  </g>
</svg>
