<?xml version="1.0" encoding="UTF-8" standalone="no"?>
<!DOCTYPE svg PUBLIC "-//W3C//DTD SVG 20010904//EN"
              "http://www.w3.org/TR/2001/REC-SVG-20010904/DTD/svg10.dtd">

<svg xmlns="http://www.w3.org/2000/svg"
     width="2.04in" height="2.04in"
     viewBox="0 0 612 612">
  <path id="Welle 3"
        fill="none" stroke="black" stroke-width="1"
        d="M 488.00,139.78
           C 494.93,138.84 497.54,143.85 501.00,149.00
             508.77,160.57 513.84,170.06 519.00,183.00
             534.14,220.99 531.94,264.47 516.80,302.00
             512.79,311.93 508.58,319.13 502.67,328.00
             500.56,331.16 497.76,335.98 493.99,337.22
             489.16,338.80 481.77,333.64 485.28,326.00
             488.08,319.87 496.06,312.39 504.55,291.00
             517.39,258.65 516.91,223.56 505.31,191.00
             502.50,183.13 497.18,171.97 492.66,165.00
             490.53,161.72 483.25,151.86 482.53,149.00
             481.34,144.28 484.23,141.75 488.00,139.78 Z" />
  <path id="Welle 2"
        fill="none" stroke="black" stroke-width="1"
        d="M 450.02,165.81
           C 455.24,165.56 457.21,168.09 460.33,172.00
             464.46,177.17 470.41,186.92 472.86,193.00
             485.64,222.83 487.08,257.33 472.86,287.00
             470.01,292.66 462.83,306.08 457.91,309.40
             452.47,313.07 445.20,308.34 446.47,302.00
             447.07,298.99 451.16,293.78 453.00,291.00
             457.07,284.85 458.98,280.87 461.58,274.00
             472.67,244.61 469.47,214.61 452.77,188.00
             448.42,181.07 437.51,171.20 450.02,165.81 Z" />
  <path id="Welle 1"
        fill="none" stroke="black" stroke-width="1"
        d="M 413.02,189.91
           C 420.77,190.77 426.80,200.57 430.22,207.00
             440.48,226.28 441.01,245.76 433.32,266.00
             431.06,271.93 422.73,287.04 415.96,287.72
             411.13,288.20 407.38,283.79 409.35,279.00
             410.99,275.04 416.53,271.42 421.55,259.00
             427.36,244.62 426.00,227.61 418.68,214.00
             415.44,207.98 412.17,205.67 409.15,201.00
             405.84,195.89 407.12,191.62 413.02,189.91 Z" />
  <path id="Körper oben"
        fill="none" stroke="black" stroke-width="1"
        d="M 83.00,234.00
           C 83.00,234.00 83.00,216.00 83.00,216.00
             83.00,201.99 83.27,189.37 100.00,185.24
             104.67,184.08 107.27,184.01 112.00,184.00
             112.00,184.00 340.00,184.00 340.00,184.00
             346.30,184.01 353.51,184.58 359.00,187.99
             362.98,190.47 364.56,193.24 367.28,195.08
             370.37,197.18 375.12,197.53 378.56,204.00
             381.08,208.75 381.99,222.34 382.00,228.00
             382.00,228.00 381.28,260.00 381.28,260.00
             380.61,265.46 380.67,270.14 377.15,274.90
             373.66,279.62 370.33,278.81 366.42,282.30
             358.95,288.96 358.03,291.86 347.00,292.00
             344.93,292.02 340.07,292.19 338.32,291.43
             335.16,290.05 326.41,276.56 323.86,273.00
             311.86,256.26 301.35,234.28 278.00,234.00
             278.00,234.00 83.00,234.00 83.00,234.00 Z" />
  <path id="Körper unten"
        fill="none" stroke="black" stroke-width="1"
        d="M 321.00,293.00
           C 321.00,293.00 225.00,293.00 225.00,293.00
             225.00,293.00 161.00,293.00 161.00,293.00
             161.00,293.00 111.00,293.00 111.00,293.00
             104.20,292.99 97.73,292.49 92.00,288.36
             80.89,280.36 81.98,268.05 82.00,256.00
             82.00,254.01 81.77,250.19 83.02,248.60
             84.59,246.62 88.70,247.00 91.00,247.00
             91.00,247.00 276.00,247.00 276.00,247.00
             280.30,247.01 285.11,246.98 288.99,249.14
             294.66,252.30 305.11,268.97 309.43,275.00
             313.45,280.62 318.82,286.42 321.00,293.00 Z" />
  <path id="Abzug"
        fill="none" stroke="black" stroke-width="1"
        d="M 183.00,351.00
           C 183.00,351.00 195.35,313.00 195.35,313.00
             197.15,307.63 197.79,301.10 204.97,302.15
             208.84,302.72 211.42,306.26 213.93,309.00
             213.93,309.00 226.07,323.00 226.07,323.00
             229.23,326.48 233.76,331.18 234.57,336.00
             235.79,343.32 228.87,346.75 223.00,348.36
             209.69,352.01 196.66,351.00 183.00,351.00 Z" />
  <path id="Griff"
        fill="none" stroke="black" stroke-width="1"
        d="M 126.00,303.00
           C 126.00,303.00 187.00,303.00 187.00,303.00
             182.83,318.49 170.02,342.34 170.00,357.00
             170.00,357.00 170.00,376.00 170.00,376.00
             170.00,376.00 169.04,388.00 169.04,388.00
             169.04,388.00 169.04,403.00 169.04,403.00
             169.01,407.06 169.00,412.36 170.98,416.00
             173.43,420.50 180.75,425.51 184.59,434.00
             186.78,438.87 186.01,450.27 186.00,456.00
             185.97,470.23 178.83,472.98 166.00,473.00
             166.00,473.00 123.00,473.00 123.00,473.00
             117.26,473.00 105.99,473.58 101.00,471.74
             93.24,468.87 92.01,463.32 92.00,456.00
             91.99,450.39 91.24,439.82 93.41,435.00
             99.86,420.74 108.97,422.66 109.00,406.00
             109.00,406.00 109.00,357.00 109.00,357.00
             109.03,341.19 122.20,319.20 126.00,303.00 Z" />
</svg>
