<?xml version="1.0" encoding="UTF-8" standalone="no"?>
<svg
   xmlns:dc="http://purl.org/dc/elements/1.1/"
   xmlns:cc="http://creativecommons.org/ns#"
   xmlns:rdf="http://www.w3.org/1999/02/22-rdf-syntax-ns#"
   xmlns:svg="http://www.w3.org/2000/svg"
   xmlns="http://www.w3.org/2000/svg"
   xmlns:sodipodi="http://sodipodi.sourceforge.net/DTD/sodipodi-0.dtd"
   xmlns:inkscape="http://www.inkscape.org/namespaces/inkscape"
   width="1.9065408in"
   height="2.2494242in"
   viewBox="0 0 137.27054 161.95856"
   version="1.1"
   id="svg4"
   sodipodi:docname="Radarkamera_filled.svg"
   inkscape:version="1.0 (4035a4fb49, 2020-05-01)">
  <metadata
     id="metadata10">
    <rdf:RDF>
      <cc:Work
         rdf:about="">
        <dc:format>image/svg+xml</dc:format>
        <dc:type
           rdf:resource="http://purl.org/dc/dcmitype/StillImage" />
        <dc:title></dc:title>
      </cc:Work>
    </rdf:RDF>
  </metadata>
  <defs
     id="defs8" />
  <sodipodi:namedview
     fit-margin-bottom="0"
     fit-margin-right="0"
     fit-margin-left="0"
     fit-margin-top="0"
     inkscape:document-rotation="0"
     pagecolor="#ffffff"
     bordercolor="#666666"
     borderopacity="1"
     objecttolerance="10"
     gridtolerance="10"
     guidetolerance="10"
     inkscape:pageopacity="0"
     inkscape:pageshadow="2"
     inkscape:window-width="3840"
     inkscape:window-height="2066"
     id="namedview6"
     showgrid="false"
     inkscape:zoom="0.97394004"
     inkscape:cx="92.150865"
     inkscape:cy="106.02204"
     inkscape:window-x="-11"
     inkscape:window-y="-11"
     inkscape:window-maximized="1"
     inkscape:current-layer="svg4" />
  <path
     id="Stativ"
     fill="none"
     stroke="#000000"
     stroke-width="1"
     d="m 42.611886,100.51653 c 0,0 52,0 52,0 0,0 -1.72,2.91 -0.69,4.53 1.03,1.62 9.240004,13.92 9.240004,13.92 0,0 30.47,41.55 30.47,41.55 0,0 -14.04,0.02 -14.04,0.02 0,0 -35.980004,-49.02 -35.980004,-49.02 -1.04,0.47 -10,3.16 -10,3.16 0,0 0,35.83 0,35.83 -0.02,2.37 0.12,7.32 -1.19,9.48 -1.31,2.15 -7.84,1.84 -8.93,-0.25 -1.1,-2.1 -0.86,-7.78 -0.88,-10.22 0,0 0,-35 0,-35 0,0 -9,-3 -9,-3 0,0 -36,49.01 -36,49.01 0,0 -14.0100001,-0.01 -14.0100001,-0.01 0,0 30.4600001,-41.55 30.4600001,-41.55 0,0 8.06,-12.05 9.24,-13.92 1.18,-1.88 -0.69,-4.53 -0.69,-4.53 z"
     style="fill:#000000;fill-opacity:1" />
  <path
     id="Kamera"
     fill="none"
     stroke="#000000"
     stroke-width="1"
     d="m 15.611886,13.516533 c 0,-3.01 -0.58,-9.2300003 1.6,-11.4000003 1.92,-1.92000002 5.86,-1.59000002 8.4,-1.60000002 0,0 15,0 15,0 2.15,0.03 5.52,-0.11 7.01,1.74000002 1.44,1.79 0.99,8.7800003 0.99,11.2600003 0,0 67.000004,0 67.000004,0 4.27,0 17.62,-1.23 19.98,2.31 1.23,1.85 1.02,5.5 1.02,7.69 0,0 0,54 0,54 0,3.39 0.9,15 -1.6,16.98 -1.59,1.25 -5.41,1.02 -7.4,1.02 0,0 -97.000004,0 -97.000004,0 0,0 -22.0000001,0 -22.0000001,0 -1.82,-0.01 -4.92,0.15 -6.4,-1.02 -1.97999998,-1.57 -1.59999998,-5.68 -1.59999998,-7.98 0,0 0,-55 0,-55 0,-14.04 -1.62000002,-17.82 7.99999998,-18 0,0 7.0000001,0 7.0000001,0 z m 51,14.3 c -10.84,1.73 -18.89,5.96 -23.24,16.7 -7.31,18.07 7.16,39.81 27.24,37.52 4.12,-0.47 8.45,-1.85 12,-4 23.350004,-14.1 13.11,-51.75 -16,-50.22 z"
     style="fill:#000000;fill-opacity:1" />
</svg>
