<?xml version="1.0" encoding="UTF-8" standalone="no"?>
<!DOCTYPE svg PUBLIC "-//W3C//DTD SVG 20010904//EN"
              "http://www.w3.org/TR/2001/REC-SVG-20010904/DTD/svg10.dtd">

<svg xmlns="http://www.w3.org/2000/svg"
     width="11.7917in" height="7.86111in"
     viewBox="0 0 849 566">
  <path id="Stativ"
        fill="none" stroke="black" stroke-width="1"
        d="M 398.00,304.00
           C 398.00,304.00 450.00,304.00 450.00,304.00
             450.00,304.00 448.28,306.91 449.31,308.53
             450.34,310.15 458.55,322.45 458.55,322.45
             458.55,322.45 489.02,364.00 489.02,364.00
             489.02,364.00 474.98,364.02 474.98,364.02
             474.98,364.02 439.00,315.00 439.00,315.00
             437.96,315.47 429.00,318.16 429.00,318.16
             429.00,318.16 429.00,353.99 429.00,353.99
             428.98,356.36 429.12,361.31 427.81,363.47
             426.50,365.62 419.97,365.31 418.88,363.22
             417.78,361.12 418.02,355.44 418.00,353.00
             418.00,353.00 418.00,318.00 418.00,318.00
             418.00,318.00 409.00,315.00 409.00,315.00
             409.00,315.00 373.00,364.01 373.00,364.01
             373.00,364.01 358.99,364.00 358.99,364.00
             358.99,364.00 389.45,322.45 389.45,322.45
             389.45,322.45 397.51,310.40 398.69,308.53
             399.87,306.65 398.00,304.00 398.00,304.00 Z" />
  <path id="Kamera"
        fill="none" stroke="black" stroke-width="1"
        d="M 371.00,217.00
           C 371.00,213.99 370.42,207.77 372.60,205.60
             374.52,203.68 378.46,204.01 381.00,204.00
             381.00,204.00 396.00,204.00 396.00,204.00
             398.15,204.03 401.52,203.89 403.01,205.74
             404.45,207.53 404.00,214.52 404.00,217.00
             404.00,217.00 471.00,217.00 471.00,217.00
             475.27,217.00 488.62,215.77 490.98,219.31
             492.21,221.16 492.00,224.81 492.00,227.00
             492.00,227.00 492.00,281.00 492.00,281.00
             492.00,284.39 492.90,296.00 490.40,297.98
             488.81,299.23 484.99,299.00 483.00,299.00
             483.00,299.00 386.00,299.00 386.00,299.00
             386.00,299.00 364.00,299.00 364.00,299.00
             362.18,298.99 359.08,299.15 357.60,297.98
             355.62,296.41 356.00,292.30 356.00,290.00
             356.00,290.00 356.00,235.00 356.00,235.00
             356.00,220.96 354.38,217.18 364.00,217.00
             364.00,217.00 371.00,217.00 371.00,217.00 Z
           M 422.00,231.30
           C 411.16,233.03 403.11,237.26 398.76,248.00
             391.45,266.07 405.92,287.81 426.00,285.52
             430.12,285.05 434.45,283.67 438.00,281.52
             461.35,267.42 451.11,229.77 422.00,231.30 Z" />
</svg>
