<?xml version="1.0" encoding="UTF-8" standalone="no"?>
<svg
   xmlns:dc="http://purl.org/dc/elements/1.1/"
   xmlns:cc="http://creativecommons.org/ns#"
   xmlns:rdf="http://www.w3.org/1999/02/22-rdf-syntax-ns#"
   xmlns:svg="http://www.w3.org/2000/svg"
   xmlns="http://www.w3.org/2000/svg"
   xmlns:sodipodi="http://sodipodi.sourceforge.net/DTD/sodipodi-0.dtd"
   xmlns:inkscape="http://www.inkscape.org/namespaces/inkscape"
   inkscape:version="1.0 (4035a4fb49, 2020-05-01)"
   sodipodi:docname="Jugend_forscht_nur-logo.svg"
   id="svg1879"
   height="100"
   width="100"
   version="1.0">
  <metadata
     id="metadata10">
    <rdf:RDF>
      <cc:Work
         rdf:about="">
        <dc:format>image/svg+xml</dc:format>
        <dc:type
           rdf:resource="http://purl.org/dc/dcmitype/StillImage" />
        <dc:title></dc:title>
      </cc:Work>
    </rdf:RDF>
  </metadata>
  <sodipodi:namedview
     inkscape:current-layer="svg1879"
     inkscape:window-maximized="1"
     inkscape:window-y="-11"
     inkscape:window-x="-11"
     inkscape:cy="36.318044"
     inkscape:cx="45.609111"
     inkscape:zoom="10.371667"
     inkscape:document-units="pt"
     inkscape:pagecheckerboard="false"
     showgrid="false"
     id="namedview8"
     inkscape:window-height="2066"
     inkscape:window-width="3840"
     inkscape:pageshadow="2"
     inkscape:pageopacity="0"
     guidetolerance="10"
     gridtolerance="10"
     objecttolerance="10"
     borderopacity="1"
     bordercolor="#666666"
     pagecolor="#ffffff" />
  <defs
     id="defs1881" />
  <g
     transform="matrix(1.0116399,0,0,1.0116435,-443.04115,-10.4594)"
     id="layer1">
    <g
       id="Ebene_x0020_1"
       style="fill-rule:evenodd"
       transform="matrix(3.543307e-5,0,0,3.543307e-5,-0.00212265,2.272949e-6)">
      <path
         id="_46828632"
         style="fill:#cc0001"
         d="m 12359800,1686690 c 0,-770310 624350,-1394900 1394850,-1394900 770190,0 1394900,624590 1394900,1394900 0,770440 -624710,1394840 -1394900,1394840 -770500,0 -1394850,-624400 -1394850,-1394840 z" />
      <path
         id="_47558552"
         style="fill:#ffffff;fill-opacity:1"
         d="m 13659600,2772180 -37330,-5940 -23190,146680 c -4200,26630 -12180,40230 -36480,36560 -22580,-3690 -26870,-18730 -23120,-42970 l 1780,-11000 -37390,-5950 -1780,11420 c -6110,38750 7670,71260 52730,78390 61320,9750 76010,-25620 81890,-62640 z m 24780,138840 c 1000,55330 36840,82140 89980,81370 53190,-960 88140,-29070 87070,-84410 l -2320,-138290 -37800,710 2260,125820 c 410,29000 -830,62700 -49740,63420 -48970,890 -51480,-32690 -51830,-61750 l -2260,-125710 -37860,710 z m 396890,-81960 -89920,19080 5940,28110 56230,-11950 c 7070,36020 -8800,63190 -46900,70430 -45220,9750 -72570,-26200 -81190,-66620 -8670,-40590 1730,-84580 47140,-94200 26560,-5530 53730,3440 63240,30490 l 36020,-7670 c -15640,-46480 -59570,-62770 -105740,-52900 -63350,13370 -90520,71630 -77610,132130 12590,60320 61260,102580 124690,89080 25730,-5520 42070,-16690 57110,-43380 l 10990,23600 23660,-5000 z m 77260,92250 146150,-59080 -12300,-30200 -111020,44870 -23590,-58530 100790,-40770 -11470,-28600 -100920,40660 -21280,-52430 109250,-44090 -12420,-30190 -144070,58120 z m 190550,-79940 30900,-18430 -81900,-136170 960,-530 165930,85530 34180,-20630 -111260,-185070 -30790,18600 81960,136290 -470,400 -166590,-85630 -34130,20560 z m 196130,-124810 65560,-60990 c 48730,-45400 36730,-100380 -3980,-143940 -40770,-43630 -94630,-59380 -143240,-13970 l -65550,60920 z m -98550,-161130 27290,-25320 c 43320,-40470 75650,-24310 105200,7190 29470,31730 43380,65140 0,105560 l -27280,25260 z m 336580,-88670 21100,-31330 -79410,-53550 54570,-80940 -25620,-17290 -54440,80940 -47010,-31500 62220,-92300 -26980,-18310 -83440,123690 z m -29960,-325520 c 18730,-42200 63840,-43320 101630,-26570 37930,16890 67460,51240 48620,93480 -18840,42330 -64060,43340 -101990,26520 -37730,-16760 -67100,-51180 -48260,-93430 z m -28280,-12540 c -26400,59080 4930,115420 61150,140500 56470,25070 119220,10630 145550,-48560 26330,-59080 -4930,-115360 -61330,-140440 -56280,-25080 -119040,-10630 -145370,48500 z m 258940,-50880 8510,-36730 -86660,-19960 12600,-54270 c 7780,-33870 26750,-37860 65320,-28940 10340,2250 21810,4980 32270,1490 l 9100,-39480 c -10460,5890 -33700,4290 -58070,-1360 -33340,-7660 -46950,8740 -51710,21110 l -710,-180 c -600,-7440 -4460,-37680 -44810,-47010 -35600,-8330 -62350,10450 -72990,56390 l -23240,100560 z m -171690,-78390 13730,-59790 c 4400,-19250 13720,-35310 40640,-29070 22110,5000 30490,20270 25090,43640 l -13850,60370 z m 145960,-136580 c 53430,2080 79160,-36670 81720,-85880 2260,-42790 -14850,-86830 -63060,-89270 -22530,-1250 -47420,11060 -57230,39100 -3920,10950 -18960,58010 -19980,61230 -4930,15210 -13950,25070 -29060,24250 -21750,-1140 -26910,-23540 -26020,-40950 1360,-26090 12600,-44220 40460,-44530 l 1800,-37790 c -44820,-2430 -70610,34060 -72990,79110 -2020,38930 16110,79880 59310,82260 22300,1000 45230,-8620 57230,-44940 9690,-29180 14620,-48620 21040,-63420 3820,-8550 11000,-17290 27580,-16330 16280,760 31920,14020 30320,47300 -1730,30200 -15880,53910 -49150,52060 z m -87720,-384650 c -45640,10170 -67700,51590 -62060,99910 7910,64190 63610,96340 124940,88920 61210,-7490 107450,-52310 99610,-116440 -6480,-51890 -46290,-83930 -98010,-80650 l 4530,36670 c 31610,-950 58770,14440 62870,47660 5590,45880 -32500,70140 -73630,75130 -41140,5170 -84050,-9160 -89690,-55040 -3870,-31260 12180,-49260 36010,-58660 z m 136750,-67930 -10400,-36370 -93720,26800 -26990,-94500 93560,-26930 -10350,-36190 -207480,59490 10340,36310 82620,-23640 26980,94380 -82500,23770 10350,36310 z m -229700,-124630 -29900,-61390 164690,-80360 -16640,-34000 -164760,80350 -29950,-61750 -29420,14330 76550,157080 z m -1803990,-731450 815670,654310 730610,-657280 -403670,926930 378890,321350 -422930,31620 -2730,436110 -263650,-275520 -859700,769890 447760,-884600 -414830,28640 477890,-418940 z" />
    </g>
  </g>
</svg>
